<svg width="24" height="24" viewBox="0 0 24 24" fill="none" xmlns="http://www.w3.org/2000/svg">
<path d="M8 9C8.55228 9 9 8.55228 9 8C9 7.44772 8.55228 7 8 7V9ZM5 8V7H4V8H5ZM5 21H4V22H5V21ZM19 21V22H20V21H19ZM19 8H20V7H19V8ZM16 7C15.4477 7 15 7.44772 15 8C15 8.55228 15.4477 9 16 9V7ZM11 14C11 14.5523 11.4477 15 12 15C12.5523 15 13 14.5523 13 14H11ZM13 2C13 1.44772 12.5523 1 12 1C11.4477 1 11 1.44772 11 2H13ZM8 7H5V9H8V7ZM4 8V21H6V8H4ZM5 22H19V20H5V22ZM20 21V8H18V21H20ZM19 7H16V9H19V7ZM13 14V2H11V14H13Z" fill="#0E202E"/>
<path d="M15 4L12.7071 1.70711C12.3166 1.31658 11.6834 1.31658 11.2929 1.70711L9 4" stroke="#0E202E" stroke-width="2" stroke-linecap="round"/>
</svg>
